<?xml version="1.0" encoding="utf-8"?>
<!-- Generator: Adobe Illustrator 21.1.0, SVG Export Plug-In . SVG Version: 6.00 Build 0)  -->
<svg version="1.1" xmlns="http://www.w3.org/2000/svg" xmlns:xlink="http://www.w3.org/1999/xlink" x="0px" y="0px"
	 viewBox="0 0 460.5 494.6" style="enable-background:new 0 0 460.5 494.6;" xml:space="preserve">
<style type="text/css">
	.st0{display:none;}
	.st1{display:inline;}
	.st2{fill:#010101;}
	.st3{fill:#FFFFFF;}
	.st4{fill:url(#SVGID_1_);}
	.st5{fill:url(#SVGID_2_);}
	.st6{fill:url(#SVGID_3_);}
	.st7{fill:url(#SVGID_4_);}
	.st8{fill:url(#SVGID_5_);}
	.st9{fill:url(#SVGID_6_);}
	.st10{fill:url(#SVGID_7_);}
	.st11{fill:url(#SVGID_8_);}
	.st12{fill:url(#SVGID_9_);}
	.st13{fill:url(#SVGID_10_);}
	.st14{fill:url(#SVGID_11_);}
	.st15{fill:url(#SVGID_12_);}
	.st16{fill:url(#SVGID_13_);}
	.st17{opacity:0.32;fill:url(#SVGID_14_);enable-background:new    ;}
	.st18{opacity:0.23;fill:url(#SVGID_15_);enable-background:new    ;}
	.st19{fill:url(#SVGID_16_);}
	.st20{opacity:0.44;fill:url(#SVGID_17_);enable-background:new    ;}
	.st21{opacity:0.38;fill:url(#SVGID_18_);enable-background:new    ;}
	.st22{fill:#239397;}
</style>
<g id="Layer_1" class="st0">
	<g class="st1">
		<g>
			<path class="st2" d="M53.5,469.9h-7.7v-31.6H19.4v31.6h-7.7v-70.4h7.7v31.2h26.4v-31.2h7.7V469.9z"/>
			<path class="st2" d="M88.7,417.1c7.3,0,13.4,2.7,18.6,7.8c5.2,5.2,7.7,11.5,7.7,18.9v4H70.7c1,4.2,3.1,7.8,6.3,10.5
				c3.4,2.9,7.3,4.2,11.7,4.2c3.4,0,6.5-1,9.6-2.7c2.9-1.9,5.2-4.4,6.7-7.5l7.1,3.6c-2.3,4.4-5.5,8-9.8,10.5
				c-4.2,2.5-8.6,3.8-13.6,3.8c-7.3,0-13.4-2.7-18.6-7.8c-5.2-5.2-7.7-11.5-7.7-18.9c0-7.3,2.5-13.6,7.7-18.9
				C75.3,419.6,81.4,417.1,88.7,417.1z M106.6,439.9c-1-4.2-3.1-7.8-6.3-10.5c-3.4-2.9-7.3-4.2-11.5-4.2c-4.4,0-8.2,1.3-11.7,4.2
				c-3.3,2.9-5.5,6.3-6.3,10.5H106.6z"/>
			<path class="st2" d="M149.5,417.1c7.3,0,13.4,2.7,18.6,7.8c5.2,5.2,7.7,11.5,7.7,18.9c0,7.3-2.5,13.6-7.7,18.7
				c-5.2,5.2-11.3,7.8-18.6,7.8c-7.1,0-13.4-2.5-18.4-7.7v7.1h-7.8v-70.4h7.8v25.3C136.3,419.6,142.4,417.1,149.5,417.1z
				 M149.5,462.5c5,0,9.4-1.9,13-5.5s5.4-8,5.4-13.2c0-5.2-1.7-9.6-5.4-13.4c-3.6-3.6-7.8-5.5-13-5.5c-5.2,0-9.4,1.9-13,5.5
				s-5.4,8.2-5.4,13.4c0,5.2,1.7,9.6,5.4,13.2S144.5,462.5,149.5,462.5z"/>
			<path class="st2" d="M192,425.5c4.6-5.4,9.9-8,16.3-8h0.6v7.7h-0.6c-4.6,0-8.4,1.7-11.5,5.4c-3.3,4.2-4.8,9-4.8,14v25.3h-7.7
				v-52.2h7.7V425.5z"/>
			<path class="st2" d="M239.6,417.1c7.3,0,13.4,2.7,18.6,7.8s7.7,11.5,7.7,18.9v4h-44.2c1,4.2,3.1,7.8,6.3,10.5
				c3.4,2.9,7.3,4.2,11.7,4.2c3.4,0,6.5-1,9.6-2.7c2.9-1.9,5.2-4.4,6.7-7.5l7.1,3.6c-2.3,4.4-5.5,8-9.8,10.5
				c-4.2,2.5-8.6,3.8-13.6,3.8c-7.3,0-13.4-2.7-18.6-7.8s-7.7-11.5-7.7-18.9c0-7.3,2.5-13.6,7.7-18.9
				C226,419.6,232.3,417.1,239.6,417.1z M257.4,439.9c-1-4.2-3.1-7.8-6.3-10.5c-3.4-2.9-7.3-4.2-11.5-4.2c-4.4,0-8.2,1.3-11.7,4.2
				c-3.3,2.9-5.5,6.3-6.3,10.5H257.4z"/>
			<path class="st2" d="M287.2,469.9l-16.8-66.6h9l7.8,33.7c1.9,8.2,3.8,16.6,5,23h0.2c1.1-6.7,3.3-14.5,5.4-23.1l8.8-33.7h9l8,33.9
				c1.9,7.8,3.6,15.9,4.6,22.8h0.2c1.3-7.3,3.3-14.7,5.4-23l8.8-33.7h8.8l-18.9,66.6h-9l-8.4-34.6c-2.1-8.4-3.4-14.9-4.4-21.8h-0.2
				c-1.1,6.7-2.7,13.2-5.2,21.8l-9.6,34.6h-8.4V469.9z"/>
			<path class="st2" d="M382.9,469.9l-0.8-5.9h-0.4c-2.7,3.8-7.8,7.1-14.5,7.1c-9.8,0-14.5-6.9-14.5-13.8
				c0-11.5,10.3-17.8,28.7-17.8v-1c0-4-1.1-11.1-10.9-11.1c-4.4,0-9,1.3-12.4,3.6l-1.9-5.7c4-2.5,9.8-4.2,15.7-4.2
				c14.5,0,18.2,9.9,18.2,19.5v17.8c0,4.2,0.2,8.2,0.8,11.5H382.9z M381.6,445.4c-9.6-0.2-20.3,1.5-20.3,10.7c0,5.5,3.8,8.2,8.2,8.2
				c6.3,0,10.1-4,11.5-8c0.4-1,0.6-1.9,0.6-2.7V445.4z"/>
			<path class="st2" d="M408.2,443.3c0,4.8,1.7,9.2,5.4,12.8c3.4,3.6,7.5,5.5,12.1,5.5c4.8,0,8.8-1.9,12.1-5.5
				c3.6-3.6,5.4-8,5.4-12.8v-25.8h7.8v45l-0.4,2.9c-1,6.5-3.8,11.9-8.8,16.1c-4.6,4.4-9.9,6.5-16.1,6.5c-4.2,0-8.4-1.1-12.2-3.4
				c-4.2-2.3-7.5-5.4-9.9-9.2l6.7-4.2c1.7,2.7,4,5,6.7,6.5c3.1,1.7,5.9,2.5,9,2.5c4.6,0,8.6-1.7,11.9-5.4c3.4-3.6,5.4-7.8,5.5-13
				c-5.2,5.2-10.9,7.7-17.4,7.7c-6.9,0-12.8-2.7-17.6-7.8c-5.2-5.2-7.7-11.3-7.7-18.4v-25.8h7.8v26H408.2z"/>
		</g>
		<g>
			<path class="st2" d="M231.2,14.6c-92.6,0-167.8,75-167.8,167.8c0,92.6,75,167.8,167.8,167.8c92.6,0,167.8-75,167.8-167.8
				S323.8,14.6,231.2,14.6z M344.4,278.2c-5.4-8-13.2-15.3-24.5-21.2c-24.7-13.2-94.7-43.2-99.5-45.9c-5.5-3.3-5-7.7,0.2-10.3
				c10.1-5.5,42.3-11.5,71.4-15.9c2.5-0.4,2.1-4-0.4-4c-38.6,1.5-96,7.1-146,24.7c-10.9,3.8-10.7,11.5-0.6,17.4
				c13.4,7.8,56.4,32.9,69.3,40.6c50.3,29.7,0.6,47.8-39.6,56.4c-54-22.2-92-75.4-92-137.4c0-81.9,66.6-148.7,148.7-148.7
				c81.9,0,148.7,66.6,148.7,148.7C379.8,218.9,366.4,252.4,344.4,278.2z"/>
			<g>
				<path class="st2" d="M324.7,142.4c-0.2,1.5-2.1,5.4-5.5,11.7l-2.5,0.4c-1.3-5.4-5-11.7-11.1-18.6c-2.5-2.9-6.9-7.1-13.4-13
					L280,111.8v1.3c0,2.3-0.8,5.4-2.5,9.2c-1.7,3.8-2.5,6.9-2.5,9.4c0,4.8,2.3,7.3,7.1,7.3c0.4,0,2.1-0.2,5.4-0.6l-4.2,13.2
					c-1.9,0.6-4.4,0.8-7.3,0.8c-7.5,0-11.3-3.4-11.3-10.1c0-3.4,1.1-8.6,3.6-15.3c2.3-6.7,3.6-12.1,3.4-16.1
					c0-6.9-3.1-13.2-9.2-19.1c0.8-2.3,2.9-6.1,5.9-11.3h2.9c0.6,3.4,2.3,7.1,5.4,10.9c1.9,2.3,5.2,5.9,10.1,10.5l17,16.5
					c1.3-1.9,2.7-3.8,4-5.7c1.5-2.5,2.3-4.8,2.3-6.7c0-2.5-1.3-4.8-4.2-6.5c-3.4-2.3-5.5-4.2-6.3-5.7c0.4-0.8,2.7-5.2,7.1-13h2.7
					c0.2,2.3,2.5,5.2,6.7,8.6c4.2,3.4,6.5,6.9,6.5,10.3c0,6.5-4.4,14.7-13.2,24.3C317.3,131.5,322.3,137.8,324.7,142.4z"/>
				<path class="st2" d="M244.4,138.6l-2.1,14h-33.5c-5.2,0-10.9,0.6-17.4,1.5l-0.6-1.5c0.8-2.7,1.7-6.7,3.3-12.4
					c2.1-1,7.7-1.3,16.3-1.3h15.3v-10.1c0-2.3,0.2-5.7,0.4-9.9c0.2-3.8,0.4-7.3,0.4-10.1c0-3.4-1-5.7-3.1-6.7
					c-1.1-0.6-3.6-0.8-7.7-0.8h-11.3c-6.3,0-10.9-1.7-13.6-5.2c1.1-3.3,3.1-8.2,5.7-14.7h2.9c2.1,4,5.5,5.9,10.5,5.9h10.9
					c5.7,0,9.8,1.1,12.2,3.4c2.7,2.5,4,6.7,4,12.6c0,2.9-0.4,7.1-1,12.4c-0.8,5.5-1,9.4-1,11.9c0,5,1,8.2,2.9,9.8
					C238.8,138,241.1,138.6,244.4,138.6z"/>
				<path class="st2" d="M173.4,145.5c-1.7,1.9-3.8,4.8-6.9,8.6h-2.3c-2.1-8-3.3-14.5-3.3-19.9c0-1.5-0.4-2.1-1-2.1
					c-0.6,0-1.1,0.6-1.5,1.7c-2.1,6.1-4.4,10.7-6.9,13.8c-3.4,4.2-8,6.7-14,7.3c0.4-5.7,1-11.1,1.7-15.9c7.1-2.9,13.4-7.7,18.7-14.2
					c1-1.3,1.5-4.2,1.5-8.4c0-5.4-0.8-9.2-2.5-11.5c-1.3-1.7-3.6-3.3-7.5-4.6c-3.1-1.1-4.8-1.9-5.5-2.3c-2.1-1-3.6-2.3-4.8-3.6
					c1.5-3.1,3.4-7.8,6.1-14.2h2.3c1.3,3.1,3.8,5.4,7.8,6.9c5.2,1.9,8.4,3.3,9.4,3.8c2.7,1.9,4,4.8,4,8.8c0,1.7,0,4.4-0.2,7.7
					c-0.2,3.3-0.2,5.7-0.2,7.1c0,4.6,0.6,9.9,1.7,16.1C171.5,135.3,172.5,140.5,173.4,145.5z"/>
			</g>
		</g>
	</g>
</g>
<g id="Layer_2" class="st0">
	<g class="st1">
		<g>
			<path class="st3" d="M54.4,469.9h-7.7v-31.6H20.4v31.6h-7.7v-70.4h7.7v31.2h26.4v-31.2h7.7V469.9z"/>
			<path class="st3" d="M89.6,417.1c7.3,0,13.4,2.7,18.6,7.8c5.2,5.2,7.7,11.5,7.7,18.9v4H71.6c1,4.2,3.1,7.8,6.3,10.5
				c3.4,2.9,7.3,4.2,11.7,4.2c3.4,0,6.5-1,9.6-2.7c2.9-1.9,5.2-4.4,6.7-7.5l7.1,3.6c-2.3,4.4-5.5,8-9.8,10.5
				c-4.2,2.5-8.6,3.8-13.6,3.8c-7.3,0-13.4-2.7-18.6-7.8c-5.2-5.2-7.7-11.5-7.7-18.9c0-7.3,2.5-13.6,7.7-18.9
				C76,419.6,82.3,417.1,89.6,417.1z M107.4,439.9c-1-4.2-3.1-7.8-6.3-10.5c-3.4-2.9-7.3-4.2-11.5-4.2c-4.4,0-8.2,1.3-11.7,4.2
				c-3.3,2.9-5.5,6.3-6.3,10.5H107.4z"/>
			<path class="st3" d="M150.5,417.1c7.3,0,13.4,2.7,18.6,7.8s7.7,11.5,7.7,18.9c0,7.3-2.5,13.6-7.7,18.7
				c-5.2,5.2-11.3,7.8-18.6,7.8c-7.1,0-13.4-2.5-18.4-7.7v7.1h-7.8v-70.4h7.8v25.3C137.1,419.6,143.4,417.1,150.5,417.1z
				 M150.5,462.5c5,0,9.4-1.9,13-5.5c3.6-3.6,5.4-8,5.4-13.2c0-5.2-1.7-9.6-5.4-13.4c-3.6-3.6-7.8-5.5-13-5.5s-9.4,1.9-13,5.5
				c-3.6,3.6-5.4,8.2-5.4,13.4c0,5.2,1.7,9.6,5.4,13.2S145.3,462.5,150.5,462.5z"/>
			<path class="st3" d="M192.7,425.5c4.6-5.4,9.9-8,16.3-8h0.6v7.7H209c-4.6,0-8.4,1.7-11.5,5.4c-3.3,4.2-4.8,9-4.8,14v25.3h-7.7
				v-52.2h7.7V425.5z"/>
			<path class="st3" d="M240.4,417.1c7.3,0,13.4,2.7,18.6,7.8c5.2,5.2,7.7,11.5,7.7,18.9v4h-44.2c1,4.2,3.1,7.8,6.3,10.5
				c3.4,2.9,7.3,4.2,11.7,4.2c3.4,0,6.5-1,9.6-2.7c2.9-1.9,5.2-4.4,6.7-7.5l7.1,3.6c-2.3,4.4-5.5,8-9.8,10.5
				c-4.2,2.5-8.6,3.8-13.6,3.8c-7.3,0-13.4-2.7-18.6-7.8c-5.2-5.2-7.7-11.5-7.7-18.9c0-7.3,2.5-13.6,7.7-18.9
				C227,419.6,233.1,417.1,240.4,417.1z M258.4,439.9c-1-4.2-3.1-7.8-6.3-10.5c-3.4-2.9-7.3-4.2-11.5-4.2c-4.4,0-8.2,1.3-11.7,4.2
				c-3.3,2.9-5.5,6.3-6.3,10.5H258.4z"/>
			<path class="st3" d="M288.2,469.9l-16.8-66.6h9l7.8,33.7c1.9,8.2,3.8,16.6,5,23h0.2c1.1-6.7,3.3-14.5,5.4-23.1l8.8-33.7h9l8,33.9
				c1.9,7.8,3.6,15.9,4.6,22.8h0.2c1.3-7.3,3.3-14.7,5.4-23l8.8-33.7h8.8l-18.9,66.6h-9l-8.4-34.6c-2.1-8.4-3.4-14.9-4.4-21.8h-0.2
				c-1.1,6.7-2.7,13.2-5.2,21.8l-9.6,34.6h-8.4V469.9z"/>
			<path class="st3" d="M383.7,469.9l-0.8-5.9h-0.4c-2.7,3.8-7.8,7.1-14.5,7.1c-9.8,0-14.5-6.9-14.5-13.8
				c0-11.5,10.3-17.8,28.7-17.8v-1c0-4-1.1-11.1-10.9-11.1c-4.4,0-9,1.3-12.4,3.6l-1.9-5.7c4-2.5,9.8-4.2,15.7-4.2
				c14.5,0,18.2,9.9,18.2,19.5v17.8c0,4.2,0.2,8.2,0.8,11.5H383.7z M382.5,445.4c-9.6-0.2-20.3,1.5-20.3,10.7c0,5.5,3.8,8.2,8.2,8.2
				c6.3,0,10.1-4,11.5-8c0.4-1,0.6-1.9,0.6-2.7L382.5,445.4L382.5,445.4z"/>
			<path class="st3" d="M409.1,443.3c0,4.8,1.7,9.2,5.4,12.8c3.4,3.6,7.5,5.5,12.1,5.5c4.8,0,8.8-1.9,12.1-5.5
				c3.6-3.6,5.4-8,5.4-12.8v-25.8h7.8v45l-0.4,2.9c-1,6.5-3.8,11.9-8.8,16.1c-4.6,4.4-9.9,6.5-16.1,6.5c-4.2,0-8.4-1.1-12.2-3.4
				c-4.2-2.3-7.5-5.4-9.9-9.2l6.7-4.2c1.7,2.7,4,5,6.7,6.5c3.1,1.7,5.9,2.5,9,2.5c4.6,0,8.6-1.7,11.9-5.4c3.4-3.6,5.4-7.8,5.5-13
				c-5.2,5.2-10.9,7.7-17.4,7.7c-6.9,0-12.8-2.7-17.6-7.8c-5.2-5.2-7.7-11.3-7.7-18.4v-25.8h7.8v26H409.1z"/>
		</g>
		<g>
			<path class="st3" d="M232.1,14.6c-92.6,0-167.8,75-167.8,167.8c0,92.6,75,167.8,167.8,167.8s167.8-75,167.8-167.8
				S324.7,14.6,232.1,14.6z M345.4,278.2c-5.4-8-13.2-15.3-24.5-21.2c-24.7-13.2-94.7-43.2-99.5-45.9c-5.5-3.3-5-7.7,0.2-10.3
				c10.1-5.5,42.3-11.5,71.4-15.9c2.5-0.4,2.1-4-0.4-4c-38.6,1.5-96,7.1-146,24.7c-10.9,3.8-10.7,11.5-0.6,17.4
				c13.4,7.8,56.4,32.9,69.3,40.6c50.3,29.7,0.6,47.8-39.6,56.4c-54-22.2-92-75.4-92-137.4c0-81.9,66.6-148.7,148.7-148.7
				c81.9,0,148.7,66.6,148.7,148.7C380.8,218.9,367.4,252.4,345.4,278.2z"/>
			<g>
				<path class="st3" d="M325.7,142.4c-0.2,1.5-2.1,5.4-5.5,11.7l-2.5,0.4c-1.3-5.4-5-11.7-11.1-18.6c-2.5-2.9-6.9-7.1-13.4-13
					l-12.2-11.1v1.3c0,2.3-0.8,5.4-2.5,9.2c-1.7,3.8-2.5,6.9-2.5,9.4c0,4.8,2.3,7.3,7.1,7.3c0.4,0,2.1-0.2,5.4-0.6l-4.2,13.2
					c-1.9,0.6-4.4,0.8-7.3,0.8c-7.5,0-11.3-3.4-11.3-10.1c0-3.4,1.1-8.6,3.6-15.3c2.3-6.7,3.6-12.1,3.4-16.1
					c0-6.9-3.1-13.2-9.2-19.1c0.8-2.3,2.9-6.1,5.9-11.3h2.9c0.6,3.4,2.3,7.1,5.4,10.9c1.9,2.3,5.2,5.9,10.1,10.5l17,16.5
					c1.3-1.9,2.7-3.8,4-5.7c1.5-2.5,2.3-4.8,2.3-6.7c0-2.5-1.3-4.8-4.2-6.5c-3.4-2.3-5.5-4.2-6.3-5.7c0.4-0.8,2.7-5.2,7.1-13h2.7
					c0.2,2.3,2.5,5.2,6.7,8.6c4.2,3.4,6.5,6.9,6.5,10.3c0,6.5-4.4,14.7-13.2,24.3C318.2,131.5,323.2,137.8,325.7,142.4z"/>
				<path class="st3" d="M245.2,138.6l-2.1,14h-33.5c-5.2,0-10.9,0.6-17.4,1.5l-0.6-1.5c0.8-2.7,1.7-6.7,3.3-12.4
					c2.1-1,7.7-1.3,16.3-1.3h15.3v-10.1c0-2.3,0.2-5.7,0.4-9.9c0.2-3.8,0.4-7.3,0.4-10.1c0-3.4-1-5.7-3.1-6.7
					c-1.1-0.6-3.6-0.8-7.7-0.8h-10.9c-6.3,0-10.9-1.7-13.6-5.2c1.1-3.3,3.1-8.2,5.7-14.7h2.9c2.1,4,5.5,5.9,10.5,5.9H222
					c5.7,0,9.8,1.1,12.2,3.4c2.7,2.5,4,6.7,4,12.6c0,2.9-0.4,7.1-1,12.4c-0.8,5.5-1,9.4-1,11.9c0,5,1,8.2,2.9,9.8
					C239.8,138,241.9,138.6,245.2,138.6z"/>
				<path class="st3" d="M174.4,145.5c-1.7,1.9-3.8,4.8-6.9,8.6h-2.3c-2.1-8-3.3-14.5-3.3-19.9c0-1.5-0.4-2.1-1-2.1
					c-0.6,0-1.1,0.6-1.5,1.7c-2.1,6.1-4.4,10.7-6.9,13.8c-3.4,4.2-8,6.7-14,7.3c0.4-5.7,1-11.1,1.7-15.9c7.1-2.9,13.4-7.7,18.7-14.2
					c1-1.3,1.5-4.2,1.5-8.4c0-5.4-0.8-9.2-2.5-11.5c-1.3-1.7-3.6-3.3-7.5-4.6c-3.1-1.1-4.8-1.9-5.5-2.3c-2.1-1-3.6-2.3-4.8-3.6
					c1.5-3.1,3.4-7.8,6.1-14.2h2.3c1.3,3.1,3.8,5.4,7.8,6.9c5.2,1.9,8.4,3.3,9.4,3.8c2.7,1.9,4,4.8,4,8.8c0,1.7,0,4.4-0.2,7.7
					c-0.2,3.3-0.2,5.7-0.2,7.1c0,4.6,0.6,9.9,1.7,16.1C172.3,135.3,173.4,140.5,174.4,145.5z"/>
			</g>
		</g>
	</g>
</g>
<g id="Layer_3" class="st0">
	<g class="st1">
		<g>
			
				<linearGradient id="SVGID_1_" gradientUnits="userSpaceOnUse" x1="31.6498" y1="-262.1374" x2="31.6498" y2="-260.2242" gradientTransform="matrix(1 0 0 -1 0 500.11)">
				<stop  offset="0" style="stop-color:#024353"/>
				<stop  offset="0.7621" style="stop-color:#064858"/>
				<stop  offset="1" style="stop-color:#054B5A"/>
			</linearGradient>
			<path class="st4" d="M52.5,469.9h-7.7v-31.6H18.4v31.6h-7.7v-70.4h7.7v31.2h26.4v-31.2h7.7V469.9z"/>
			
				<linearGradient id="SVGID_2_" gradientUnits="userSpaceOnUse" x1="87.7048" y1="-262.1374" x2="87.7048" y2="-260.2242" gradientTransform="matrix(1 0 0 -1 0 500.11)">
				<stop  offset="0" style="stop-color:#024353"/>
				<stop  offset="0.7621" style="stop-color:#064858"/>
				<stop  offset="1" style="stop-color:#054B5A"/>
			</linearGradient>
			<path class="st5" d="M87.7,417.1c7.3,0,13.4,2.7,18.6,7.8c5.2,5.2,7.7,11.5,7.7,18.9v4H69.7c1,4.2,3.1,7.8,6.3,10.5
				c3.4,2.9,7.3,4.2,11.7,4.2c3.4,0,6.5-1,9.6-2.7c2.9-1.9,5.2-4.4,6.7-7.5l7.1,3.6c-2.3,4.4-5.5,8-9.8,10.5
				c-4.2,2.5-8.6,3.8-13.6,3.8c-7.3,0-13.4-2.7-18.6-7.8s-7.7-11.5-7.7-18.9c0-7.3,2.5-13.6,7.7-18.9
				C74.3,419.6,80.4,417.1,87.7,417.1z M105.7,439.9c-1-4.2-3.1-7.8-6.3-10.5c-3.4-2.9-7.3-4.2-11.5-4.2c-4.4,0-8.2,1.3-11.7,4.2
				c-3.3,2.9-5.5,6.3-6.3,10.5H105.7z"/>
			
				<linearGradient id="SVGID_3_" gradientUnits="userSpaceOnUse" x1="148.7339" y1="-262.1374" x2="148.7339" y2="-260.2242" gradientTransform="matrix(1 0 0 -1 0 500.11)">
				<stop  offset="0" style="stop-color:#024353"/>
				<stop  offset="0.7621" style="stop-color:#064858"/>
				<stop  offset="1" style="stop-color:#054B5A"/>
			</linearGradient>
			<path class="st6" d="M148.7,417.1c7.3,0,13.4,2.7,18.6,7.8c5.2,5.2,7.7,11.5,7.7,18.9c0,7.3-2.5,13.6-7.7,18.7
				c-5.2,5.2-11.3,7.8-18.6,7.8c-7.1,0-13.4-2.5-18.4-7.7v7.1h-7.8v-70.4h7.8v25.3C135.3,419.6,141.5,417.1,148.7,417.1z
				 M148.7,462.5c5,0,9.4-1.9,13-5.5c3.6-3.6,5.4-8,5.4-13.2c0-5.2-1.7-9.6-5.4-13.4c-3.6-3.6-7.8-5.5-13-5.5c-5.2,0-9.4,1.9-13,5.5
				c-3.6,3.6-5.4,8.2-5.4,13.4c0,5.2,1.7,9.6,5.4,13.2C139.4,460.5,143.6,462.5,148.7,462.5z"/>
			
				<linearGradient id="SVGID_4_" gradientUnits="userSpaceOnUse" x1="195.6056" y1="-262.1374" x2="195.6056" y2="-260.2242" gradientTransform="matrix(1 0 0 -1 0 500.11)">
				<stop  offset="0" style="stop-color:#024353"/>
				<stop  offset="0.7621" style="stop-color:#064858"/>
				<stop  offset="1" style="stop-color:#054B5A"/>
			</linearGradient>
			<path class="st7" d="M191,425.5c4.6-5.4,9.9-8,16.3-8h0.6v7.7h-0.6c-4.6,0-8.4,1.7-11.5,5.4c-3.3,4.2-4.8,9-4.8,14v25.3h-7.7
				v-52.2h7.7V425.5z"/>
			
				<linearGradient id="SVGID_5_" gradientUnits="userSpaceOnUse" x1="238.6513" y1="-262.1374" x2="238.6513" y2="-260.2242" gradientTransform="matrix(1 0 0 -1 0 500.11)">
				<stop  offset="0" style="stop-color:#024353"/>
				<stop  offset="0.7621" style="stop-color:#064858"/>
				<stop  offset="1" style="stop-color:#054B5A"/>
			</linearGradient>
			<path class="st8" d="M238.7,417.1c7.3,0,13.4,2.7,18.6,7.8s7.7,11.5,7.7,18.9v4h-44.2c1,4.2,3.1,7.8,6.3,10.5
				c3.4,2.9,7.3,4.2,11.7,4.2c3.4,0,6.5-1,9.6-2.7c2.9-1.9,5.2-4.4,6.7-7.5l7.1,3.6c-2.3,4.4-5.5,8-9.8,10.5
				c-4.2,2.5-8.6,3.8-13.6,3.8c-7.3,0-13.4-2.7-18.6-7.8c-5.2-5.2-7.7-11.5-7.7-18.9c0-7.3,2.5-13.6,7.7-18.9
				C225.3,419.6,231.4,417.1,238.7,417.1z M256.6,439.9c-1-4.2-3.1-7.8-6.3-10.5c-3.4-2.9-7.3-4.2-11.5-4.2c-4.4,0-8.2,1.3-11.7,4.2
				c-3.3,2.9-5.5,6.3-6.3,10.5H256.6z"/>
			
				<linearGradient id="SVGID_6_" gradientUnits="userSpaceOnUse" x1="310.1068" y1="-262.1374" x2="310.1068" y2="-260.2242" gradientTransform="matrix(1 0 0 -1 0 500.11)">
				<stop  offset="0" style="stop-color:#024353"/>
				<stop  offset="0.7621" style="stop-color:#064858"/>
				<stop  offset="1" style="stop-color:#054B5A"/>
			</linearGradient>
			<path class="st9" d="M286.3,469.9l-16.8-66.6h9l7.8,33.7c1.9,8.2,3.8,16.6,5,23h0.2c1.1-6.7,3.3-14.5,5.4-23.1l8.8-33.7h9
				L323,437c1.9,7.8,3.6,15.9,4.6,22.8h0.2c1.3-7.3,3.3-14.7,5.4-23l8.8-33.7h8.8l-18.9,66.6h-9l-8.4-34.6
				c-2.1-8.4-3.4-14.9-4.4-21.8h-0.2c-1.1,6.7-2.7,13.2-5.2,21.8l-9.6,34.6h-8.8V469.9z"/>
			
				<linearGradient id="SVGID_7_" gradientUnits="userSpaceOnUse" x1="370.7533" y1="-262.1374" x2="370.7533" y2="-260.2242" gradientTransform="matrix(1 0 0 -1 0 500.11)">
				<stop  offset="0" style="stop-color:#024353"/>
				<stop  offset="0.7621" style="stop-color:#064858"/>
				<stop  offset="1" style="stop-color:#054B5A"/>
			</linearGradient>
			<path class="st10" d="M381.9,469.9l-0.8-5.9h-0.4c-2.7,3.8-7.8,7.1-14.5,7.1c-9.8,0-14.5-6.9-14.5-13.8
				c0-11.5,10.3-17.8,28.7-17.8v-1c0-4-1.1-11.1-10.9-11.1c-4.4,0-9,1.3-12.4,3.6l-1.9-5.7c4-2.5,9.8-4.2,15.7-4.2
				c14.5,0,18.2,9.9,18.2,19.5v17.8c0,4.2,0.2,8.2,0.8,11.5H381.9z M380.6,445.4c-9.6-0.2-20.3,1.5-20.3,10.7c0,5.5,3.8,8.2,8.2,8.2
				c6.3,0,10.1-4,11.5-8c0.4-1,0.6-1.9,0.6-2.7V445.4z"/>
			
				<linearGradient id="SVGID_8_" gradientUnits="userSpaceOnUse" x1="424.8949" y1="-262.1374" x2="424.8949" y2="-260.2242" gradientTransform="matrix(1 0 0 -1 0 500.11)">
				<stop  offset="0" style="stop-color:#024353"/>
				<stop  offset="0.7621" style="stop-color:#064858"/>
				<stop  offset="1" style="stop-color:#054B5A"/>
			</linearGradient>
			<path class="st11" d="M407.4,443.3c0,4.8,1.7,9.2,5.4,12.8c3.4,3.6,7.5,5.5,12.1,5.5c4.8,0,8.8-1.9,12.1-5.5
				c3.6-3.6,5.4-8,5.4-12.8v-25.8h7.8v45l-0.4,2.9c-1,6.5-3.8,11.9-8.8,16.1c-4.6,4.4-9.9,6.5-16.1,6.5c-4.2,0-8.4-1.1-12.2-3.4
				c-4.2-2.3-7.5-5.4-9.9-9.2l6.7-4.2c1.7,2.7,4,5,6.7,6.5c3.1,1.7,5.9,2.5,9,2.5c4.6,0,8.6-1.7,11.9-5.4c3.4-3.6,5.4-7.8,5.5-13
				c-5.2,5.2-10.9,7.7-17.4,7.7c-6.9,0-12.8-2.7-17.6-7.8c-5.2-5.2-7.7-11.3-7.7-18.4v-25.8h7.8v26H407.4z"/>
		</g>
		<g>
			
				<linearGradient id="SVGID_9_" gradientUnits="userSpaceOnUse" x1="230.4247" y1="-262.1374" x2="230.4247" y2="-260.2242" gradientTransform="matrix(1 0 0 -1 0 500.11)">
				<stop  offset="0" style="stop-color:#024353"/>
				<stop  offset="0.7621" style="stop-color:#064858"/>
				<stop  offset="1" style="stop-color:#054B5A"/>
			</linearGradient>
			<path class="st12" d="M230.4,14.6c-92.6,0-167.8,75-167.8,167.8c0,92.6,75,167.8,167.8,167.8c92.6,0,167.8-75,167.8-167.8
				C398,89.6,323,14.6,230.4,14.6z M343.7,278.2c-5.4-8-13.2-15.3-24.5-21.2c-24.7-13.2-94.7-43.2-99.5-45.9
				c-5.5-3.3-5-7.7,0.2-10.3c10.1-5.5,42.3-11.5,71.4-15.9c2.5-0.4,2.1-4-0.4-4c-38.6,1.5-96,7.1-146,24.7
				c-10.9,3.8-10.7,11.5-0.6,17.4c13.4,7.8,56.4,32.9,69.3,40.6c50.3,29.7,0.6,47.8-39.6,56.4c-54-22.2-92-75.4-92-137.4
				c0-81.9,66.6-148.7,148.7-148.7c81.9,0,148.7,66.6,148.7,148.7C378.9,218.9,365.7,252.4,343.7,278.2z"/>
			<g>
				
					<linearGradient id="SVGID_10_" gradientUnits="userSpaceOnUse" x1="292.6974" y1="-262.1374" x2="292.6974" y2="-260.2242" gradientTransform="matrix(1 0 0 -1 0 500.11)">
					<stop  offset="0" style="stop-color:#024353"/>
					<stop  offset="0.7621" style="stop-color:#064858"/>
					<stop  offset="1" style="stop-color:#054B5A"/>
				</linearGradient>
				<path class="st13" d="M323.8,142.4c-0.2,1.5-2.1,5.4-5.5,11.7l-2.5,0.4c-1.3-5.4-5-11.7-11.1-18.6c-2.5-2.9-6.9-7.1-13.4-13
					L279,111.8v1.3c0,2.3-0.8,5.4-2.5,9.2c-1.7,3.8-2.5,6.9-2.5,9.4c0,4.8,2.3,7.3,7.1,7.3c0.4,0,2.1-0.2,5.4-0.6l-4.2,13.2
					c-1.9,0.6-4.4,0.8-7.3,0.8c-7.5,0-11.3-3.4-11.3-10.1c0-3.4,1.1-8.6,3.6-15.3c2.3-6.7,3.6-12.1,3.4-16.1
					c0-6.9-3.1-13.2-9.2-19.1c0.8-2.3,2.9-6.1,5.9-11.3h2.9c0.6,3.4,2.3,7.1,5.4,10.9c1.9,2.3,5.2,5.9,10.1,10.5l17,16.5
					c1.3-1.9,2.7-3.8,4-5.7c1.5-2.5,2.3-4.8,2.3-6.7c0-2.5-1.3-4.8-4.2-6.5c-3.4-2.3-5.5-4.2-6.3-5.7c0.4-0.8,2.7-5.2,7.1-13h2.7
					c0.2,2.3,2.5,5.2,6.7,8.6c4.2,3.4,6.5,6.9,6.5,10.3c0,6.5-4.4,14.7-13.2,24.3C316.5,131.5,321.3,137.8,323.8,142.4z"/>
				
					<linearGradient id="SVGID_11_" gradientUnits="userSpaceOnUse" x1="216.6502" y1="-262.1374" x2="216.6502" y2="-260.2242" gradientTransform="matrix(1 0 0 -1 0 500.11)">
					<stop  offset="0" style="stop-color:#024353"/>
					<stop  offset="0.7621" style="stop-color:#064858"/>
					<stop  offset="1" style="stop-color:#054B5A"/>
				</linearGradient>
				<path class="st14" d="M243.4,138.6l-2.1,14h-33.5c-5.2,0-10.9,0.6-17.4,1.5l-0.6-1.5c0.8-2.7,1.7-6.7,3.3-12.4
					c2.1-1,7.7-1.3,16.3-1.3h15.3v-10.1c0-2.3,0.2-5.7,0.4-9.9c0.2-3.8,0.4-7.3,0.4-10.1c0-3.4-1-5.7-3.1-6.7
					c-1.1-0.6-3.6-0.8-7.7-0.8h-10.9c-6.3,0-10.9-1.7-13.6-5.2c1.1-3.3,3.1-8.2,5.7-14.7h2.9c2.1,4,5.5,5.9,10.5,5.9h10.9
					c5.7,0,9.8,1.1,12.2,3.4c2.7,2.5,4,6.7,4,12.6c0,2.9-0.4,7.1-1,12.4c-0.8,5.5-1,9.4-1,11.9c0,5,1,8.2,2.9,9.8
					C237.9,138,240.2,138.6,243.4,138.6z"/>
				
					<linearGradient id="SVGID_12_" gradientUnits="userSpaceOnUse" x1="154.7603" y1="-262.1374" x2="154.7603" y2="-260.2242" gradientTransform="matrix(1 0 0 -1 0 500.11)">
					<stop  offset="0" style="stop-color:#024353"/>
					<stop  offset="0.7621" style="stop-color:#064858"/>
					<stop  offset="1" style="stop-color:#054B5A"/>
				</linearGradient>
				<path class="st15" d="M172.6,145.5c-1.7,1.9-3.8,4.8-6.9,8.6h-2.3c-2.1-8-3.3-14.5-3.3-19.9c0-1.5-0.4-2.1-1-2.1
					c-0.6,0-1.1,0.6-1.5,1.7c-2.1,6.1-4.4,10.7-6.9,13.8c-3.4,4.2-8,6.7-14,7.3c0.4-5.7,1-11.1,1.7-15.9c7.1-2.9,13.4-7.7,18.7-14.2
					c1-1.3,1.5-4.2,1.5-8.4c0-5.4-0.8-9.2-2.5-11.5c-1.3-1.7-3.6-3.3-7.5-4.6c-3.1-1.1-4.8-1.9-5.5-2.3c-2.1-1-3.6-2.3-4.8-3.6
					c1.5-3.1,3.4-7.8,6.1-14.2h2.3c1.3,3.1,3.8,5.4,7.8,6.9c5.2,1.9,8.4,3.3,9.4,3.8c2.7,1.9,4,4.8,4,8.8c0,1.7,0,4.4-0.2,7.7
					c-0.2,3.3-0.2,5.7-0.2,7.1c0,4.6,0.6,9.9,1.7,16.1C170.5,135.3,171.5,140.5,172.6,145.5z"/>
			</g>
		</g>
	</g>
</g>
<g id="Layer_4" class="st0">
	<g class="st1">
		<g>
			<g>
				<path class="st3" d="M54.4,469.9h-7.7v-31.6H20.4v31.6h-7.7v-70.4h7.7v31.2h26.4v-31.2h7.7V469.9z"/>
				<path class="st3" d="M89.6,417.1c7.3,0,13.4,2.7,18.6,7.8c5.2,5.2,7.7,11.5,7.7,18.9v4H71.6c1,4.2,3.1,7.8,6.3,10.5
					c3.4,2.9,7.3,4.2,11.7,4.2c3.4,0,6.5-1,9.6-2.7c2.9-1.9,5.2-4.4,6.7-7.5l7.1,3.6c-2.3,4.4-5.5,8-9.8,10.5
					c-4.2,2.5-8.6,3.8-13.6,3.8c-7.3,0-13.4-2.7-18.6-7.8c-5.2-5.2-7.7-11.5-7.7-18.9c0-7.3,2.5-13.6,7.7-18.9
					C76,419.6,82.3,417.1,89.6,417.1z M107.4,439.9c-1-4.2-3.1-7.8-6.3-10.5c-3.4-2.9-7.3-4.2-11.5-4.2c-4.4,0-8.2,1.3-11.7,4.2
					c-3.3,2.9-5.5,6.3-6.3,10.5H107.4z"/>
				<path class="st3" d="M150.5,417.1c7.3,0,13.4,2.7,18.6,7.8c5.2,5.2,7.7,11.5,7.7,18.9c0,7.3-2.5,13.6-7.7,18.7
					s-11.3,7.8-18.6,7.8c-7.1,0-13.4-2.5-18.4-7.7v7.1h-7.8v-70.4h7.8v25.3C137.1,419.6,143.4,417.1,150.5,417.1z M150.5,462.5
					c5,0,9.4-1.9,13-5.5c3.6-3.6,5.4-8,5.4-13.2s-1.7-9.6-5.4-13.4c-3.6-3.6-7.8-5.5-13-5.5s-9.4,1.9-13,5.5
					c-3.6,3.6-5.4,8.2-5.4,13.4s1.7,9.6,5.4,13.2S145.3,462.5,150.5,462.5z"/>
				<path class="st3" d="M192.7,425.5c4.6-5.4,9.9-8,16.3-8h0.6v7.7H209c-4.6,0-8.4,1.7-11.5,5.4c-3.3,4.2-4.8,9-4.8,14v25.3h-7.7
					v-52.2h7.7V425.5z"/>
				<path class="st3" d="M240.4,417.1c7.3,0,13.4,2.7,18.6,7.8c5.2,5.2,7.7,11.5,7.7,18.9v4h-44.2c1,4.2,3.1,7.8,6.3,10.5
					c3.4,2.9,7.3,4.2,11.7,4.2c3.4,0,6.5-1,9.6-2.7c2.9-1.9,5.2-4.4,6.7-7.5l7.1,3.6c-2.3,4.4-5.5,8-9.8,10.5
					c-4.2,2.5-8.6,3.8-13.6,3.8c-7.3,0-13.4-2.7-18.6-7.8c-5.2-5.2-7.7-11.5-7.7-18.9c0-7.3,2.5-13.6,7.7-18.9
					C227,419.6,233.1,417.1,240.4,417.1z M258.4,439.9c-1-4.2-3.1-7.8-6.3-10.5c-3.4-2.9-7.3-4.2-11.5-4.2c-4.4,0-8.2,1.3-11.7,4.2
					c-3.3,2.9-5.5,6.3-6.3,10.5H258.4z"/>
				<path class="st3" d="M288.2,469.9l-16.8-66.6h9l7.8,33.7c1.9,8.2,3.8,16.6,5,23h0.2c1.1-6.7,3.3-14.5,5.4-23.1l8.8-33.7h9
					l8,33.9c1.9,7.8,3.6,15.9,4.6,22.8h0.2c1.3-7.3,3.3-14.7,5.4-23l8.8-33.7h8.8l-18.9,66.6h-9l-8.4-34.6
					c-2.1-8.4-3.4-14.9-4.4-21.8h-0.2c-1.1,6.7-2.7,13.2-5.2,21.8l-9.6,34.6h-8.4V469.9z"/>
				<path class="st3" d="M383.7,469.9l-0.8-5.9h-0.4c-2.7,3.8-7.8,7.1-14.5,7.1c-9.8,0-14.5-6.9-14.5-13.8
					c0-11.5,10.3-17.8,28.7-17.8v-1c0-4-1.1-11.1-10.9-11.1c-4.4,0-9,1.3-12.4,3.6l-1.9-5.7c4-2.5,9.8-4.2,15.7-4.2
					c14.5,0,18.2,9.9,18.2,19.5v17.8c0,4.2,0.2,8.2,0.8,11.5L383.7,469.9L383.7,469.9z M382.5,445.4c-9.6-0.2-20.3,1.5-20.3,10.7
					c0,5.5,3.8,8.2,8.2,8.2c6.3,0,10.1-4,11.5-8c0.4-1,0.6-1.9,0.6-2.7L382.5,445.4L382.5,445.4z"/>
				<path class="st3" d="M409.1,443.3c0,4.8,1.7,9.2,5.4,12.8c3.4,3.6,7.5,5.5,12.1,5.5c4.8,0,8.8-1.9,12.1-5.5
					c3.6-3.6,5.4-8,5.4-12.8v-25.8h7.8v45l-0.4,2.9c-1,6.5-3.8,11.9-8.8,16.1c-4.6,4.4-9.9,6.5-16.1,6.5c-4.2,0-8.4-1.1-12.2-3.4
					c-4.2-2.3-7.5-5.4-9.9-9.2l6.7-4.2c1.7,2.7,4,5,6.7,6.5c3.1,1.7,5.9,2.5,9,2.5c4.6,0,8.6-1.7,11.9-5.4c3.4-3.6,5.4-7.8,5.5-13
					c-5.2,5.2-10.9,7.7-17.4,7.7c-6.9,0-12.8-2.7-17.6-7.8c-5.2-5.2-7.7-11.3-7.7-18.4v-25.8h7.8v26H409.1z"/>
			</g>
		</g>
		<g>
			<g>
				
					<linearGradient id="SVGID_13_" gradientUnits="userSpaceOnUse" x1="232.1466" y1="484.7513" x2="232.1466" y2="149.187" gradientTransform="matrix(1 0 0 -1 0 500.11)">
					<stop  offset="5.128205e-03" style="stop-color:#024353"/>
					<stop  offset="0.1207" style="stop-color:#064858"/>
					<stop  offset="0.3034" style="stop-color:#045865"/>
					<stop  offset="0.5304" style="stop-color:#14717A"/>
					<stop  offset="0.7902" style="stop-color:#229498"/>
					<stop  offset="1" style="stop-color:#2CBCB4"/>
				</linearGradient>
				<circle class="st16" cx="232.1" cy="183.1" r="167.8"/>
			</g>
			
				<radialGradient id="SVGID_14_" cx="531.7273" cy="-64.6078" r="0.9566" gradientTransform="matrix(1 0 0 -1 0 500.11)" gradientUnits="userSpaceOnUse">
				<stop  offset="0" style="stop-color:#1E4A65;stop-opacity:0"/>
				<stop  offset="0.1247" style="stop-color:#1D4A63;stop-opacity:0.1247"/>
				<stop  offset="0.2772" style="stop-color:#1A4D61;stop-opacity:0.2772"/>
				<stop  offset="0.4443" style="stop-color:#16515E;stop-opacity:0.4443"/>
				<stop  offset="0.6218" style="stop-color:#015659;stop-opacity:0.6218"/>
				<stop  offset="0.8074" style="stop-color:#015C50;stop-opacity:0.8074"/>
				<stop  offset="0.9974" style="stop-color:#016341;stop-opacity:0.9974"/>
				<stop  offset="1" style="stop-color:#046541"/>
			</radialGradient>
			<circle class="st17" cx="232.1" cy="185.1" r="167.8"/>
			<g>
				<path class="st3" d="M161.7,321.1c21,10.7,45.2,17,70.4,17c46.1,0,87.4-20.1,115.9-52c-4.8-11.3-13.6-21.4-28.5-29.3
					c-24.3-13-93.2-42.5-98-45.3c-5.4-3.1-5-7.5,0.2-10.1c9.9-5.4,41.5-11.3,70.2-15.7c2.5-0.4,2.1-4-0.4-4
					c-38.1,1.3-94.3,6.9-143.5,24.3c-10.7,3.8-10.5,11.3-0.6,17c13.2,7.7,55.5,32.5,68.1,40C271.4,295.8,201.5,314.2,161.7,321.1z"
					/>
				<g>
					<path class="st3" d="M325.7,143.2c-0.2,1.5-2.1,5.4-5.5,11.7l-2.5,0.4c-1.3-5.4-5-11.7-11.1-18.6c-2.5-2.9-6.9-7.1-13.4-13
						l-12.2-11.1v1.3c0,2.3-0.8,5.4-2.5,9.2c-1.7,3.8-2.5,6.9-2.5,9.4c0,4.8,2.3,7.3,7.1,7.3c0.4,0,2.1-0.2,5.4-0.6l-4.2,13.2
						c-1.9,0.6-4.4,0.8-7.3,0.8c-7.5,0-11.3-3.4-11.3-10.1c0-3.4,1.1-8.6,3.6-15.3c2.3-6.7,3.6-12.1,3.4-16.1
						c0-6.9-3.1-13.2-9.2-19.1c0.8-2.3,2.9-6.1,5.9-11.3h2.9c0.6,3.4,2.3,7.1,5.4,10.9c1.9,2.3,5.2,5.9,10.1,10.5l17,16.5
						c1.3-1.9,2.7-3.8,4-5.7c1.5-2.5,2.3-4.8,2.3-6.7c0-2.5-1.3-4.8-4.2-6.5c-3.4-2.3-5.5-4.2-6.3-5.7c0.4-0.8,2.7-5.2,7.1-13h2.7
						c0.2,2.3,2.5,5.2,6.7,8.6c4.2,3.4,6.5,6.9,6.5,10.3c0,6.5-4.4,14.7-13.2,24.3C318.2,132.3,323.2,138.6,325.7,143.2z"/>
					<path class="st3" d="M245.2,139.3l-2.1,14h-33.5c-5.2,0-10.9,0.6-17.4,1.5l-0.6-1.5c0.8-2.7,1.7-6.7,3.3-12.4
						c2.1-1,7.7-1.3,16.3-1.3h15.3v-10.1c0-2.3,0.2-5.7,0.4-9.9c0.2-3.8,0.4-7.3,0.4-10.1c0-3.4-1-5.7-3.1-6.7
						c-1.1-0.6-3.6-0.8-7.7-0.8h-10.9c-6.3,0-10.9-1.7-13.6-5.2c1.1-3.3,3.1-8.2,5.7-14.7h2.9c2.1,4,5.5,5.9,10.5,5.9H222
						c5.7,0,9.8,1.1,12.2,3.4c2.7,2.5,4,6.7,4,12.6c0,2.9-0.4,7.1-1,12.4c-0.8,5.5-1,9.4-1,11.9c0,5,1,8.2,2.9,9.8
						C239.8,138.8,241.9,139.3,245.2,139.3z"/>
					<path class="st3" d="M174.4,146.2c-1.7,1.9-3.8,4.8-6.9,8.6h-2.3c-2.1-8-3.3-14.5-3.3-19.9c0-1.5-0.4-2.1-1-2.1
						c-0.6,0-1.1,0.6-1.5,1.7c-2.1,6.1-4.4,10.7-6.9,13.8c-3.4,4.2-8,6.7-14,7.3c0.4-5.7,1-11.1,1.7-15.9
						c7.1-2.9,13.4-7.7,18.7-14.2c1-1.3,1.5-4.2,1.5-8.4c0-5.4-0.8-9.2-2.5-11.5c-1.3-1.7-3.6-3.3-7.5-4.6c-3.1-1.1-4.8-1.9-5.5-2.3
						c-2.1-1-3.6-2.3-4.8-3.6c1.5-3.1,3.4-7.8,6.1-14.2h2.3c1.3,3.1,3.8,5.4,7.8,6.9c5.2,1.9,8.4,3.3,9.4,3.8c2.7,1.9,4,4.8,4,8.8
						c0,1.7,0,4.4-0.2,7.7s-0.2,5.7-0.2,7.1c0,4.6,0.6,9.9,1.7,16.1C172.3,136.1,173.4,141.2,174.4,146.2z"/>
				</g>
			</g>
			
				<radialGradient id="SVGID_15_" cx="232.1466" cy="316.9691" r="167.7821" gradientTransform="matrix(1 0 0 -1 0 500.11)" gradientUnits="userSpaceOnUse">
				<stop  offset="0.5772" style="stop-color:#1E4A65;stop-opacity:0"/>
				<stop  offset="0.6207" style="stop-color:#244D68;stop-opacity:0.1027"/>
				<stop  offset="0.6835" style="stop-color:#355773;stop-opacity:0.2514"/>
				<stop  offset="0.7583" style="stop-color:#536D86;stop-opacity:0.4282"/>
				<stop  offset="0.8421" style="stop-color:#7A8DA2;stop-opacity:0.6265"/>
				<stop  offset="0.9323" style="stop-color:#B9C1CD;stop-opacity:0.8399"/>
				<stop  offset="1" style="stop-color:#FFFFFF"/>
			</radialGradient>
			<circle class="st18" cx="232.1" cy="183.1" r="167.8"/>
		</g>
	</g>
</g>
<g id="Layer_5" class="st0">
	<g class="st1">
		<g>
			<path class="st3" d="M53.5,454.6h-7.7V423H19.4v31.6h-7.7v-70.4h7.7v31.2h26.4v-31.2h7.7V454.6z"/>
			<path class="st3" d="M88.7,401.8c7.3,0,13.4,2.7,18.6,7.8c5.2,5.2,7.7,11.5,7.7,18.9v4H70.7c1,4.2,3.1,7.8,6.3,10.5
				c3.4,2.9,7.3,4.2,11.7,4.2c3.4,0,6.5-1,9.6-2.7c2.9-1.9,5.2-4.4,6.7-7.5l7.1,3.6c-2.3,4.4-5.5,8-9.8,10.5
				c-4.2,2.5-8.6,3.8-13.6,3.8c-7.3,0-13.4-2.7-18.6-7.8c-5.2-5.2-7.7-11.5-7.7-18.9c0-7.3,2.5-13.6,7.7-18.9
				C75.3,404.3,81.4,401.8,88.7,401.8z M106.6,424.6c-1-4.2-3.1-7.8-6.3-10.5c-3.4-2.9-7.3-4.2-11.5-4.2c-4.4,0-8.2,1.3-11.7,4.2
				c-3.3,2.9-5.5,6.3-6.3,10.5H106.6z"/>
			<path class="st3" d="M149.5,401.8c7.3,0,13.4,2.7,18.6,7.8c5.2,5.2,7.7,11.5,7.7,18.9c0,7.3-2.5,13.6-7.7,18.7
				c-5.2,5.2-11.3,7.8-18.6,7.8c-7.1,0-13.4-2.5-18.4-7.7v7.1h-7.8v-70.4h7.8v25.3C136.3,404.3,142.4,401.8,149.5,401.8z
				 M149.5,447.2c5,0,9.4-1.9,13-5.5s5.4-8,5.4-13.2c0-5.2-1.7-9.6-5.4-13.4c-3.6-3.6-7.8-5.5-13-5.5c-5.2,0-9.4,1.9-13,5.5
				s-5.4,8.2-5.4,13.4c0,5.2,1.7,9.6,5.4,13.2S144.5,447.2,149.5,447.2z"/>
			<path class="st3" d="M192,410.2c4.6-5.4,9.9-8,16.3-8h0.6v7.7h-0.6c-4.6,0-8.4,1.7-11.5,5.4c-3.3,4.2-4.8,9-4.8,14v25.3h-7.7
				v-52.2h7.7V410.2z"/>
			<path class="st3" d="M239.6,401.8c7.3,0,13.4,2.7,18.6,7.8c5.2,5.2,7.7,11.5,7.7,18.9v4h-44.2c1,4.2,3.1,7.8,6.3,10.5
				c3.4,2.9,7.3,4.2,11.7,4.2c3.4,0,6.5-1,9.6-2.7c2.9-1.9,5.2-4.4,6.7-7.5l7.1,3.6c-2.3,4.4-5.5,8-9.8,10.5
				c-4.2,2.5-8.6,3.8-13.6,3.8c-7.3,0-13.4-2.7-18.6-7.8c-5.2-5.2-7.7-11.5-7.7-18.9c0-7.3,2.5-13.6,7.7-18.9
				C226,404.3,232.3,401.8,239.6,401.8z M257.4,424.6c-1-4.2-3.1-7.8-6.3-10.5c-3.4-2.9-7.3-4.2-11.5-4.2c-4.4,0-8.2,1.3-11.7,4.2
				c-3.3,2.9-5.5,6.3-6.3,10.5H257.4z"/>
			<path class="st3" d="M287.2,454.6L270.4,388h9l7.8,33.7c1.9,8.2,3.8,16.6,5,23h0.2c1.1-6.7,3.3-14.5,5.4-23.1l8.8-33.7h9l8,33.9
				c1.9,7.8,3.6,15.9,4.6,22.8h0.2c1.3-7.3,3.3-14.7,5.4-23l8.8-33.7h8.8l-18.9,66.6h-9l-8.4-34.6c-2.1-8.4-3.4-14.9-4.4-21.8h-0.2
				c-1.1,6.7-2.7,13.2-5.2,21.8l-9.6,34.6h-8.4V454.6z"/>
			<path class="st3" d="M382.9,454.6l-0.8-5.9h-0.4c-2.7,3.8-7.8,7.1-14.5,7.1c-9.8,0-14.5-6.9-14.5-13.8
				c0-11.5,10.3-17.8,28.7-17.8v-1c0-4-1.1-11.1-10.9-11.1c-4.4,0-9,1.3-12.4,3.6l-1.9-5.7c4-2.5,9.8-4.2,15.7-4.2
				c14.5,0,18.2,9.9,18.2,19.5v17.8c0,4.2,0.2,8.2,0.8,11.5L382.9,454.6L382.9,454.6z M381.6,430.1c-9.6-0.2-20.3,1.5-20.3,10.7
				c0,5.5,3.8,8.2,8.2,8.2c6.3,0,10.1-4,11.5-8c0.4-1,0.6-1.9,0.6-2.7V430.1z"/>
			<path class="st3" d="M408.2,428c0,4.8,1.7,9.2,5.4,12.8c3.4,3.6,7.5,5.5,12.1,5.5c4.8,0,8.8-1.9,12.1-5.5c3.6-3.6,5.4-8,5.4-12.8
				v-25.8h7.8v45l-0.4,2.9c-1,6.5-3.8,11.9-8.8,16.1c-4.6,4.4-9.9,6.5-16.1,6.5c-4.2,0-8.4-1.1-12.2-3.4c-4.2-2.3-7.5-5.4-9.9-9.2
				l6.7-4.2c1.7,2.7,4,5,6.7,6.5c3.1,1.7,5.9,2.5,9,2.5c4.6,0,8.6-1.7,11.9-5.4c3.4-3.6,5.4-7.8,5.5-13c-5.2,5.2-10.9,7.7-17.4,7.7
				c-6.9,0-12.8-2.7-17.6-7.8c-5.2-5.2-7.7-11.3-7.7-18.4V402h7.8v26H408.2z"/>
		</g>
		<g>
			
				<linearGradient id="SVGID_16_" gradientUnits="userSpaceOnUse" x1="231.2856" y1="470.594" x2="231.2856" y2="163.5356" gradientTransform="matrix(1 0 0 -1 0 500.11)">
				<stop  offset="5.128205e-03" style="stop-color:#024353"/>
				<stop  offset="0.1207" style="stop-color:#064858"/>
				<stop  offset="0.3034" style="stop-color:#045865"/>
				<stop  offset="0.5304" style="stop-color:#14717A"/>
				<stop  offset="0.7902" style="stop-color:#229498"/>
				<stop  offset="1" style="stop-color:#2CBCB4"/>
			</linearGradient>
			<path class="st19" d="M278.6,336.6h-94.7c-58.7,0-106.2-47.4-106.2-106.2v-94.7c0-58.7,47.4-106.2,106.2-106.2h94.7
				c58.7,0,106.2,47.4,106.2,106.2v94.7C384.8,289.1,337.2,336.6,278.6,336.6z"/>
			
				<radialGradient id="SVGID_17_" cx="231.2856" cy="317.0648" r="153.5292" gradientTransform="matrix(1 0 0 -1 0 500.11)" gradientUnits="userSpaceOnUse">
				<stop  offset="0" style="stop-color:#1E4A65;stop-opacity:0"/>
				<stop  offset="0.1312" style="stop-color:#1A4C63;stop-opacity:0.1312"/>
				<stop  offset="0.388" style="stop-color:#11535D;stop-opacity:0.388"/>
				<stop  offset="0.7416" style="stop-color:#005C50;stop-opacity:0.7416"/>
				<stop  offset="1" style="stop-color:#046541"/>
			</radialGradient>
			<path class="st20" d="M278.6,336.6h-94.7c-58.7,0-106.2-47.4-106.2-106.2v-94.7c0-58.7,47.4-106.2,106.2-106.2h94.7
				c58.7,0,106.2,47.4,106.2,106.2v94.7C384.8,289.1,337.2,336.6,278.6,336.6z"/>
			
				<radialGradient id="SVGID_18_" cx="231.2856" cy="317.0648" r="153.5292" gradientTransform="matrix(1 0 0 -1 0 500.11)" gradientUnits="userSpaceOnUse">
				<stop  offset="0" style="stop-color:#1E4A65;stop-opacity:0"/>
				<stop  offset="0.2209" style="stop-color:#204C67;stop-opacity:0.2209"/>
				<stop  offset="0.3931" style="stop-color:#2A546E;stop-opacity:0.3931"/>
				<stop  offset="0.5487" style="stop-color:#3B637E;stop-opacity:0.5487"/>
				<stop  offset="0.6947" style="stop-color:#517A95;stop-opacity:0.6947"/>
				<stop  offset="0.8338" style="stop-color:#709BB6;stop-opacity:0.8338"/>
				<stop  offset="0.9661" style="stop-color:#9ECCE4;stop-opacity:0.9661"/>
				<stop  offset="1" style="stop-color:#B0E2FA"/>
			</radialGradient>
			<path class="st21" d="M278.6,336.6h-94.7c-58.7,0-106.2-47.4-106.2-106.2v-94.7c0-58.7,47.4-106.2,106.2-106.2h94.7
				c58.7,0,106.2,47.4,106.2,106.2v94.7C384.8,289.1,337.2,336.6,278.6,336.6z"/>
			<g>
				<path class="st3" d="M231.2,63.2c-66.2,0-120,53.8-120,120s53.8,120,120,120s120-53.8,120-120S297.6,63.2,231.2,63.2z
					 M312.3,251.8c-3.8-5.7-9.4-10.9-17.4-15.1c-17.6-9.4-67.7-31-71.2-32.9c-4-2.3-3.6-5.5,0-7.5c7.3-4,30.2-8.2,51.1-11.5
					c1.7-0.2,1.5-2.9-0.2-2.9c-27.7,1-68.7,5.2-104.5,17.6c-7.8,2.7-7.7,8.2-0.4,12.4c9.6,5.5,40.4,23.5,49.6,29.1
					c36,21.2,0.4,34.2-28.3,40.4c-38.6-15.9-65.8-54-65.8-98.3c0-58.5,47.6-106.4,106.4-106.4c58.5,0,106.4,47.6,106.4,106.4
					C337.6,209.4,328,233.3,312.3,251.8z"/>
				<g>
					<path class="st3" d="M298.1,154.6c-0.2,1.1-1.5,3.8-4,8.4l-1.7,0.2c-1-3.8-3.6-8.2-8-13.2c-1.9-2.1-5-5.2-9.6-9.4l-8.8-8v1
						c0,1.7-0.6,3.8-1.7,6.5c-1.1,2.7-1.7,5-1.7,6.7c0,3.4,1.7,5.2,5,5.2c0.4,0,1.5-0.2,3.8-0.4l-2.9,9.4c-1.3,0.4-3.1,0.6-5.2,0.6
						c-5.4,0-8-2.5-8-7.3c0-2.5,0.8-6.1,2.5-10.9c1.7-4.8,2.5-8.6,2.5-11.5c0-4.8-2.3-9.4-6.5-13.8c0.6-1.7,1.9-4.4,4.2-8h1.9
						c0.4,2.5,1.7,5,3.8,7.8c1.3,1.7,3.8,4.2,7.3,7.7l12.2,11.7c1-1.3,1.9-2.7,2.9-4c1.1-1.9,1.7-3.4,1.7-4.8c0-1.7-1-3.4-2.9-4.8
						c-2.5-1.7-4-3.1-4.6-4.2c0.2-0.6,1.9-3.6,5.2-9.4h1.9c0.2,1.5,1.7,3.6,4.8,6.1c3.1,2.5,4.6,5,4.6,7.5c0,4.8-3.1,10.5-9.4,17.4
						C292.8,146.8,296.4,151.2,298.1,154.6z"/>
					<path class="st3" d="M240.6,151.8l-1.5,9.9h-23.9c-3.6,0-7.8,0.4-12.4,1.1l-0.4-1.1c0.6-1.9,1.3-4.8,2.3-9
						c1.5-0.8,5.4-1,11.7-1h10.9v-7.3c0-1.7,0-4,0.2-7.1c0.2-2.9,0.2-5.2,0.2-7.3c0-2.5-0.8-4.2-2.3-4.8c-0.8-0.4-2.7-0.6-5.4-0.6
						h-7.8c-4.6,0-7.8-1.1-9.8-3.6c1-2.3,2.3-5.9,4.2-10.5h1.9c1.5,2.9,4,4.2,7.7,4.2h7.7c4,0,7.1,0.8,8.8,2.5
						c1.9,1.7,2.9,4.8,2.9,9.2c0,2.1-0.2,5-0.8,9c-0.6,3.8-0.8,6.7-0.8,8.6c0,3.6,0.8,5.9,2.1,6.9
						C236.7,151.6,238.3,151.8,240.6,151.8z"/>
					<path class="st3" d="M189.9,156.7c-1.1,1.3-2.9,3.4-5,6.1h-1.5c-1.5-5.7-2.3-10.5-2.3-14.2c0-1-0.2-1.5-0.8-1.5
						c-0.4,0-0.8,0.4-1.1,1.1c-1.5,4.4-3.1,7.7-5,9.8c-2.5,3.1-5.7,4.8-9.9,5.4c0.2-4.2,0.6-8,1.3-11.5c5.2-2.1,9.6-5.4,13.4-10.1
						c0.8-1,1.1-2.9,1.1-6.1c0-3.8-0.6-6.7-1.7-8.2c-1-1.1-2.7-2.3-5.4-3.3c-2.1-0.8-3.4-1.3-4-1.5c-1.5-0.8-2.7-1.5-3.4-2.7
						c1-2.3,2.5-5.5,4.4-10.1h1.5c1,2.3,2.7,3.8,5.5,5c3.8,1.3,5.9,2.3,6.7,2.7c1.9,1.3,2.9,3.4,2.9,6.3c0,1.3,0,3.1-0.2,5.5
						c-0.2,2.3-0.2,4-0.2,5.2c0,3.3,0.4,7.1,1.3,11.5C188.5,149.5,189.1,153.1,189.9,156.7z"/>
				</g>
			</g>
		</g>
	</g>
</g>
<g id="Layer_6">
	<g>
		<g>
			<path class="st22" d="M52.5,469.9h-7.7v-31.6H18.4v31.6h-7.7v-70.4h7.7v31.2h26.4v-31.2h7.7V469.9z"/>
			<path class="st22" d="M87.7,417.1c7.3,0,13.4,2.7,18.6,7.8c5.2,5.2,7.7,11.5,7.7,18.9v4H69.7c1,4.2,3.1,7.8,6.3,10.5
				c3.4,2.9,7.3,4.2,11.7,4.2c3.4,0,6.5-1,9.6-2.7c2.9-1.9,5.2-4.4,6.7-7.5l7.1,3.6c-2.3,4.4-5.5,8-9.8,10.5
				c-4.2,2.5-8.6,3.8-13.6,3.8c-7.3,0-13.4-2.7-18.6-7.8c-5.2-5.2-7.7-11.5-7.7-18.9c0-7.3,2.5-13.6,7.7-18.9
				C74.3,419.6,80.4,417.1,87.7,417.1z M105.7,439.9c-1-4.2-3.1-7.8-6.3-10.5c-3.4-2.9-7.3-4.2-11.5-4.2c-4.4,0-8.2,1.3-11.7,4.2
				c-3.3,2.9-5.5,6.3-6.3,10.5H105.7z"/>
			<path class="st22" d="M148.7,417.1c7.3,0,13.4,2.7,18.6,7.8c5.2,5.2,7.7,11.5,7.7,18.9c0,7.3-2.5,13.6-7.7,18.7
				c-5.2,5.2-11.3,7.8-18.6,7.8c-7.1,0-13.4-2.5-18.4-7.7v7.1h-7.8v-70.4h7.8v25.3C135.3,419.6,141.5,417.1,148.7,417.1z
				 M148.7,462.5c5,0,9.4-1.9,13-5.5c3.6-3.6,5.4-8,5.4-13.2s-1.7-9.6-5.4-13.4c-3.6-3.6-7.8-5.5-13-5.5c-5.2,0-9.4,1.9-13,5.5
				c-3.6,3.6-5.4,8.2-5.4,13.4s1.7,9.6,5.4,13.2C139.4,460.5,143.6,462.5,148.7,462.5z"/>
			<path class="st22" d="M191,425.5c4.6-5.4,9.9-8,16.3-8h0.6v7.7h-0.6c-4.6,0-8.4,1.7-11.5,5.4c-3.3,4.2-4.8,9-4.8,14v25.3h-7.7
				v-52.2h7.7V425.5z"/>
			<path class="st22" d="M238.7,417.1c7.3,0,13.4,2.7,18.6,7.8c5.2,5.2,7.7,11.5,7.7,18.9v4h-44.2c1,4.2,3.1,7.8,6.3,10.5
				c3.4,2.9,7.3,4.2,11.7,4.2c3.4,0,6.5-1,9.6-2.7c2.9-1.9,5.2-4.4,6.7-7.5l7.1,3.6c-2.3,4.4-5.5,8-9.8,10.5
				c-4.2,2.5-8.6,3.8-13.6,3.8c-7.3,0-13.4-2.7-18.6-7.8c-5.2-5.2-7.7-11.5-7.7-18.9c0-7.3,2.5-13.6,7.7-18.9
				C225.3,419.6,231.4,417.1,238.7,417.1z M256.6,439.9c-1-4.2-3.1-7.8-6.3-10.5c-3.4-2.9-7.3-4.2-11.5-4.2c-4.4,0-8.2,1.3-11.7,4.2
				c-3.3,2.9-5.5,6.3-6.3,10.5H256.6z"/>
			<path class="st22" d="M286.3,469.9l-16.8-66.6h9l7.8,33.7c1.9,8.2,3.8,16.6,5,23h0.2c1.1-6.7,3.3-14.5,5.4-23.1l8.8-33.7h9
				L323,437c1.9,7.8,3.6,15.9,4.6,22.8h0.2c1.3-7.3,3.3-14.7,5.4-23l8.8-33.7h8.8l-18.9,66.6h-9l-8.4-34.6
				c-2.1-8.4-3.4-14.9-4.4-21.8h-0.2c-1.1,6.7-2.7,13.2-5.2,21.8l-9.6,34.6h-8.8V469.9z"/>
			<path class="st22" d="M381.9,469.9l-0.8-5.9h-0.4c-2.7,3.8-7.8,7.1-14.5,7.1c-9.8,0-14.5-6.9-14.5-13.8
				c0-11.5,10.3-17.8,28.7-17.8v-1c0-4-1.1-11.1-10.9-11.1c-4.4,0-9,1.3-12.4,3.6l-1.9-5.7c4-2.5,9.8-4.2,15.7-4.2
				c14.5,0,18.2,9.9,18.2,19.5v17.8c0,4.2,0.2,8.2,0.8,11.5L381.9,469.9L381.9,469.9z M380.6,445.4c-9.6-0.2-20.3,1.5-20.3,10.7
				c0,5.5,3.8,8.2,8.2,8.2c6.3,0,10.1-4,11.5-8c0.4-1,0.6-1.9,0.6-2.7V445.4z"/>
			<path class="st22" d="M407.4,443.3c0,4.8,1.7,9.2,5.4,12.8c3.4,3.6,7.5,5.5,12.1,5.5c4.8,0,8.8-1.9,12.1-5.5
				c3.6-3.6,5.4-8,5.4-12.8v-25.8h7.8v45l-0.4,2.9c-1,6.5-3.8,11.9-8.8,16.1c-4.6,4.4-9.9,6.5-16.1,6.5c-4.2,0-8.4-1.1-12.2-3.4
				c-4.2-2.3-7.5-5.4-9.9-9.2l6.7-4.2c1.7,2.7,4,5,6.7,6.5c3.1,1.7,5.9,2.5,9,2.5c4.6,0,8.6-1.7,11.9-5.4c3.4-3.6,5.4-7.8,5.5-13
				c-5.2,5.2-10.9,7.7-17.4,7.7c-6.9,0-12.8-2.7-17.6-7.8c-5.2-5.2-7.7-11.3-7.7-18.4v-25.8h7.8v26H407.4z"/>
		</g>
		<g>
			<path class="st22" d="M230.4,14.6c-92.6,0-167.8,75-167.8,167.8c0,92.6,75,167.8,167.8,167.8c92.6,0,167.8-75,167.8-167.8
				C398,89.6,323,14.6,230.4,14.6z M343.7,278.2c-5.4-8-13.2-15.3-24.5-21.2c-24.7-13.2-94.7-43.2-99.5-45.9
				c-5.5-3.3-5-7.7,0.2-10.3c10.1-5.5,42.3-11.5,71.4-15.9c2.5-0.4,2.1-4-0.4-4c-38.6,1.5-96,7.1-146,24.7
				c-10.9,3.8-10.7,11.5-0.6,17.4c13.4,7.8,56.4,32.9,69.3,40.6c50.3,29.7,0.6,47.8-39.6,56.4c-54-22.2-92-75.4-92-137.4
				c0-81.9,66.6-148.7,148.7-148.7c81.9,0,148.7,66.6,148.7,148.7C378.9,218.9,365.7,252.4,343.7,278.2z"/>
			<g>
				<path class="st22" d="M323.8,142.4c-0.2,1.5-2.1,5.4-5.5,11.7l-2.5,0.4c-1.3-5.4-5-11.7-11.1-18.6c-2.5-2.9-6.9-7.1-13.4-13
					L279,111.8v1.3c0,2.3-0.8,5.4-2.5,9.2c-1.7,3.8-2.5,6.9-2.5,9.4c0,4.8,2.3,7.3,7.1,7.3c0.4,0,2.1-0.2,5.4-0.6l-4.2,13.2
					c-1.9,0.6-4.4,0.8-7.3,0.8c-7.5,0-11.3-3.4-11.3-10.1c0-3.4,1.1-8.6,3.6-15.3c2.3-6.7,3.6-12.1,3.4-16.1
					c0-6.9-3.1-13.2-9.2-19.1c0.8-2.3,2.9-6.1,5.9-11.3h2.9c0.6,3.4,2.3,7.1,5.4,10.9c1.9,2.3,5.2,5.9,10.1,10.5l17,16.5
					c1.3-1.9,2.7-3.8,4-5.7c1.5-2.5,2.3-4.8,2.3-6.7c0-2.5-1.3-4.8-4.2-6.5c-3.4-2.3-5.5-4.2-6.3-5.7c0.4-0.8,2.7-5.2,7.1-13h2.7
					c0.2,2.3,2.5,5.2,6.7,8.6c4.2,3.4,6.5,6.9,6.5,10.3c0,6.5-4.4,14.7-13.2,24.3C316.5,131.5,321.3,137.8,323.8,142.4z"/>
				<path class="st22" d="M243.4,138.6l-2.1,14h-33.5c-5.2,0-10.9,0.6-17.4,1.5l-0.6-1.5c0.8-2.7,1.7-6.7,3.3-12.4
					c2.1-1,7.7-1.3,16.3-1.3h15.3v-10.1c0-2.3,0.2-5.7,0.4-9.9c0.2-3.8,0.4-7.3,0.4-10.1c0-3.4-1-5.7-3.1-6.7
					c-1.1-0.6-3.6-0.8-7.7-0.8h-10.9c-6.3,0-10.9-1.7-13.6-5.2c1.1-3.3,3.1-8.2,5.7-14.7h2.9c2.1,4,5.5,5.9,10.5,5.9h10.9
					c5.7,0,9.8,1.1,12.2,3.4c2.7,2.5,4,6.7,4,12.6c0,2.9-0.4,7.1-1,12.4c-0.8,5.5-1,9.4-1,11.9c0,5,1,8.2,2.9,9.8
					C237.9,138,240.2,138.6,243.4,138.6z"/>
				<path class="st22" d="M172.6,145.5c-1.7,1.9-3.8,4.8-6.9,8.6h-2.3c-2.1-8-3.3-14.5-3.3-19.9c0-1.5-0.4-2.1-1-2.1
					c-0.6,0-1.1,0.6-1.5,1.7c-2.1,6.1-4.4,10.7-6.9,13.8c-3.4,4.2-8,6.7-14,7.3c0.4-5.7,1-11.1,1.7-15.9c7.1-2.9,13.4-7.7,18.7-14.2
					c1-1.3,1.5-4.2,1.5-8.4c0-5.4-0.8-9.2-2.5-11.5c-1.3-1.7-3.6-3.3-7.5-4.6c-3.1-1.1-4.8-1.9-5.5-2.3c-2.1-1-3.6-2.3-4.8-3.6
					c1.5-3.1,3.4-7.8,6.1-14.2h2.3c1.3,3.1,3.8,5.4,7.8,6.9c5.2,1.9,8.4,3.3,9.4,3.8c2.7,1.9,4,4.8,4,8.8c0,1.7,0,4.4-0.2,7.7
					s-0.2,5.7-0.2,7.1c0,4.6,0.6,9.9,1.7,16.1C170.5,135.3,171.5,140.5,172.6,145.5z"/>
			</g>
		</g>
	</g>
</g>
</svg>
