<svg xmlns="http://www.w3.org/2000/svg" viewBox="0 0 16 16">
    <path style="line-height:normal;text-indent:0;text-align:start;text-decoration-line:none;text-decoration-style:solid;text-decoration-color:#000;text-transform:none;block-progression:tb;isolation:auto;mix-blend-mode:normal" d="M 4.5 2 C 3.6774686 2 3 2.6774686 3 3.5 L 3 12.5 C 3 13.322531 3.6774686 14 4.5 14 L 13 14 L 13 13 L 4.5 13 C 4.2185314 13 4 12.781469 4 12.5 C 4 12.218531 4.2185314 12 4.5 12 L 12 12 L 13 12 L 13 11 L 13 2 L 4.5 2 z M 4.5 3 L 12 3 L 12 11 L 4.5 11 C 4.3243299 11 4.15725 11.037133 4 11.09375 L 4 3.5 C 4 3.2185314 4.2185314 3 4.5 3 z M 7.875 4 A 0.50005 0.50005 0 0 0 7.4101562 4.3164062 L 6.0351562 7.8164062 A 0.50005 0.50005 0 0 0 6 8 L 6 10 L 7 10 L 7 8.9941406 L 9 8.9941406 L 9 10 L 10 10 L 10 8 A 0.50005 0.50005 0 0 0 9.9648438 7.8164062 L 8.5898438 4.3164062 A 0.50005 0.50005 0 0 0 8.125 4 L 7.875 4 z M 8 5.546875 L 8.9609375 7.9941406 L 7.0390625 7.9941406 L 8 5.546875 z" font-weight="400" font-family="sans-serif" white-space="normal" overflow="visible"/>
</svg>